<?xml version="1.0" encoding="UTF-8" standalone="no"?>
<svg
   xmlns:dc="http://purl.org/dc/elements/1.1/"
   xmlns:cc="http://creativecommons.org/ns#"
   xmlns:rdf="http://www.w3.org/1999/02/22-rdf-syntax-ns#"
   xmlns:svg="http://www.w3.org/2000/svg"
   xmlns="http://www.w3.org/2000/svg"
   xmlns:sodipodi="http://sodipodi.sourceforge.net/DTD/sodipodi-0.dtd"
   xmlns:inkscape="http://www.inkscape.org/namespaces/inkscape"
   id="E-Government"
   x="0px"
   y="0px"
   viewBox="0 0 200.00001 64.999999"
   xml:space="preserve"
   version="1.1"
   sodipodi:docname="SaaS-Development.svg"
   width="200"
   height="65"
   inkscape:version="1.0.2 (e86c870879, 2021-01-15)"
   inkscape:export-filename="/mnt/datos/ownCloud/SaaS-Development.png"
   inkscape:export-xdpi="96"
   inkscape:export-ydpi="96"><metadata
   id="metadata33"><rdf:RDF><cc:Work
       rdf:about=""><dc:format>image/svg+xml</dc:format><dc:type
         rdf:resource="http://purl.org/dc/dcmitype/StillImage" /><dc:title></dc:title></cc:Work></rdf:RDF></metadata><defs
   id="defs31"><marker
   style="overflow:visible"
   id="EmptyDiamondS"
   refX="0.0"
   refY="0.0"
   orient="auto"
   inkscape:stockid="EmptyDiamondS"
   inkscape:isstock="true"><path
     transform="scale(0.2)"
     style="fill-rule:evenodd;fill:#ffffff;stroke:#008080;stroke-width:1pt;stroke-opacity:1"
     d="M 0,-7.0710768 L -7.0710894,0 L 0,7.0710589 L 7.0710462,0 L 0,-7.0710768 z "
     id="path1019" /></marker><marker
   style="overflow:visible"
   id="marker1373"
   refX="0"
   refY="0"
   orient="auto"
   inkscape:stockid="DotL"
   inkscape:isstock="true"><path
     transform="matrix(0.8,0,0,0.8,5.92,0.8)"
     style="fill:#501616;fill-opacity:1;fill-rule:evenodd;stroke:#501616;stroke-width:1pt;stroke-opacity:1"
     d="m -2.5,-1 c 0,2.76 -2.24,5 -5,5 -2.76,0 -5,-2.24 -5,-5 0,-2.76 2.24,-5 5,-5 2.76,0 5,2.24 5,5 z"
     id="path1371" /></marker><marker
   style="overflow:visible"
   id="EmptyDiamondLstart"
   refX="0"
   refY="0"
   orient="auto"
   inkscape:stockid="EmptyDiamondLstart"
   inkscape:isstock="true"><path
     transform="matrix(0.8,0,0,0.8,5.6,0)"
     style="fill:#501616;fill-opacity:1;fill-rule:evenodd;stroke:#501616;stroke-width:1pt;stroke-opacity:1"
     d="M 0,-7.0710768 -7.0710894,0 0,7.0710589 7.0710462,0 Z"
     id="path1022" /></marker><marker
   style="overflow:visible"
   id="DotL"
   refX="0"
   refY="0"
   orient="auto"
   inkscape:stockid="DotL"
   inkscape:isstock="true"
   inkscape:collect="always"><path
     transform="matrix(0.8,0,0,0.8,5.92,0.8)"
     style="fill:#800080;fill-opacity:1;fill-rule:evenodd;stroke:#800080;stroke-width:1pt;stroke-opacity:1"
     d="m -2.5,-1 c 0,2.76 -2.24,5 -5,5 -2.76,0 -5,-2.24 -5,-5 0,-2.76 2.24,-5 5,-5 2.76,0 5,2.24 5,5 z"
     id="path968" /></marker>            <marker
   style="overflow:visible"
   id="DotL-3"
   refX="0"
   refY="0"
   orient="auto"
   inkscape:stockid="DotL"
   inkscape:isstock="true"><path
     transform="matrix(0.8,0,0,0.8,5.92,0.8)"
     style="fill:#800080;fill-opacity:1;fill-rule:evenodd;stroke:#800080;stroke-width:1pt;stroke-opacity:1"
     d="m -2.5,-1 c 0,2.76 -2.24,5 -5,5 -2.76,0 -5,-2.24 -5,-5 0,-2.76 2.24,-5 5,-5 2.76,0 5,2.24 5,5 z"
     id="path968-6" /></marker><marker
   style="overflow:visible"
   id="marker1373-5"
   refX="0"
   refY="0"
   orient="auto"
   inkscape:stockid="DotL"
   inkscape:isstock="true"><path
     transform="matrix(0.8,0,0,0.8,5.92,0.8)"
     style="fill:#008080;fill-opacity:1;fill-rule:evenodd;stroke:#008080;stroke-width:1pt;stroke-opacity:1"
     d="m -2.5,-1 c 0,2.76 -2.24,5 -5,5 -2.76,0 -5,-2.24 -5,-5 0,-2.76 2.24,-5 5,-5 2.76,0 5,2.24 5,5 z"
     id="path1371-3" /></marker><marker
   style="overflow:visible"
   id="EmptyDiamondLstart-5"
   refX="0"
   refY="0"
   orient="auto"
   inkscape:stockid="EmptyDiamondLstart"
   inkscape:isstock="true"><path
     transform="matrix(0.8,0,0,0.8,5.6,0)"
     style="fill:#008080;fill-opacity:1;fill-rule:evenodd;stroke:#008080;stroke-width:1pt;stroke-opacity:1"
     d="M 0,-7.0710768 -7.0710894,0 0,7.0710589 7.0710462,0 Z"
     id="path1022-6" /></marker></defs><sodipodi:namedview
   pagecolor="#ffffff"
   bordercolor="#666666"
   borderopacity="1"
   objecttolerance="10"
   gridtolerance="10"
   guidetolerance="10"
   inkscape:pageopacity="0"
   inkscape:pageshadow="2"
   inkscape:window-width="1280"
   inkscape:window-height="1000"
   id="namedview29"
   showgrid="false"
   showguides="true"
   inkscape:guide-bbox="true"
   inkscape:zoom="2.5200427"
   inkscape:cx="59.718435"
   inkscape:cy="6.6990821"
   inkscape:window-x="0"
   inkscape:window-y="0"
   inkscape:window-maximized="1"
   inkscape:current-layer="E-Government"><sodipodi:guide
     position="227.82971,150.53745"
     orientation="0,-1"
     id="guide877" /><sodipodi:guide
     position="200.57656,25.320888"
     orientation="0,-1"
     id="guide892" /></sodipodi:namedview> <style
   type="text/css"
   id="style2"> .st0{fill:#272525;} .st1{fill-rule:evenodd;clip-rule:evenodd;fill:#272525;} </style>  <g
   id="g2498"
   transform="translate(-1.7826893,1.1354698)"><path
     class="st0"
     d="m 58.846817,55.150321 h -2.263774 c -0.288993,0 -0.577985,-0.240827 -0.577985,-0.577985 0,-0.288993 0.240827,-0.577985 0.577985,-0.577985 h 2.263774 c 0.288992,0 0.577984,0.240827 0.577984,0.577985 0,0.337158 -0.240827,0.577985 -0.577984,0.577985 z m -4.479382,0 h -2.263774 c -0.288993,0 -0.577985,-0.240827 -0.577985,-0.577985 0,-0.288993 0.240827,-0.577985 0.577985,-0.577985 h 2.263774 c 0.288992,0 0.577984,0.240827 0.577984,0.577985 0,0.337158 -0.288992,0.577985 -0.577984,0.577985 z m -4.479383,0 h -2.263773 c -0.288993,0 -0.577985,-0.240827 -0.577985,-0.577985 0,-0.288993 0.240827,-0.577985 0.577985,-0.577985 h 2.263773 c 0.288993,0 0.577985,0.240827 0.577985,0.577985 -0.04816,0.337158 -0.288992,0.577985 -0.577985,0.577985 z m -4.527547,0 h -2.263774 c -0.288992,0 -0.577985,-0.240827 -0.577985,-0.577985 0,-0.288993 0.240827,-0.577985 0.577985,-0.577985 h 2.263774 c 0.288992,0 0.577985,0.240827 0.577985,0.577985 0,0.337158 -0.240827,0.577985 -0.577985,0.577985 z m -4.479382,0 h -2.263774 c -0.288992,0 -0.577985,-0.240827 -0.577985,-0.577985 0,-0.288993 0.240827,-0.577985 0.577985,-0.577985 h 2.263774 c 0.288992,0 0.577985,0.240827 0.577985,0.577985 0,0.337158 -0.240827,0.577985 -0.577985,0.577985 z m -4.479382,0 h -2.263774 c -0.288992,0 -0.577985,-0.240827 -0.577985,-0.577985 0,-0.288993 0.240827,-0.577985 0.577985,-0.577985 h 2.263774 c 0.288992,0 0.577984,0.240827 0.577984,0.577985 0,0.337158 -0.288992,0.577985 -0.577984,0.577985 z m -4.479382,0 h -2.263774 c -0.288993,0 -0.577985,-0.240827 -0.577985,-0.577985 0,-0.288993 0.240827,-0.577985 0.577985,-0.577985 h 2.263774 c 0.288992,0 0.577984,0.240827 0.577984,0.577985 -0.04816,0.337158 -0.288992,0.577985 -0.577984,0.577985 z m -4.527548,0 h -2.263774 c -0.288992,0 -0.577984,-0.240827 -0.577984,-0.577985 0,-0.288993 0.240827,-0.577985 0.577984,-0.577985 h 2.263774 c 0.288992,0 0.577985,0.240827 0.577985,0.577985 0,0.337158 -0.240827,0.577985 -0.577985,0.577985 z m 33.137795,-0.577985 c -0.288993,0 -0.577985,-0.240827 -0.577985,-0.577985 v -2.215608 c 0,-0.288993 0.240827,-0.577985 0.577985,-0.577985 0.288992,0 0.577984,0.240827 0.577984,0.577985 v 2.263773 c -0.04817,0.288993 -0.288992,0.52982 -0.577984,0.52982 z M 24.023233,54.090682 c -0.288992,0 -0.577985,-0.240827 -0.577985,-0.577985 v -2.215608 c 0,-0.288993 0.240827,-0.577985 0.577985,-0.577985 0.337158,0 0.577985,0.240827 0.577985,0.577985 v 2.263773 c -0.04817,0.288993 -0.288992,0.52982 -0.577985,0.52982 z m 36.509373,-3.997728 c -0.288993,0 -0.577985,-0.240827 -0.577985,-0.577985 v -2.263774 c 0,-0.288992 0.240827,-0.577985 0.577985,-0.577985 0.288992,0 0.577984,0.240827 0.577984,0.577985 v 2.263774 c -0.04817,0.337158 -0.288992,0.577985 -0.577984,0.577985 z M 24.023233,49.6113 c -0.288992,0 -0.577985,-0.240827 -0.577985,-0.577985 v -2.263774 c 0,-0.288992 0.240827,-0.577985 0.577985,-0.577985 0.337158,0 0.577985,0.240827 0.577985,0.577985 v 2.263774 c -0.04817,0.337158 -0.288992,0.577985 -0.577985,0.577985 z m 36.509373,-3.997728 c -0.288993,0 -0.577985,-0.240827 -0.577985,-0.577985 v -2.263774 c 0,-0.288992 0.240827,-0.577985 0.577985,-0.577985 0.288992,0 0.577984,0.240827 0.577984,0.577985 v 2.263774 c -0.04817,0.288992 -0.288992,0.577985 -0.577984,0.577985 z M 24.023233,45.131918 c -0.288992,0 -0.577985,-0.240827 -0.577985,-0.577985 v -2.263774 c 0,-0.288992 0.240827,-0.577985 0.577985,-0.577985 0.337158,0 0.577985,0.240827 0.577985,0.577985 v 2.263774 c -0.04817,0.288992 -0.288992,0.577985 -0.577985,0.577985 z m 36.509373,-4.045894 c -0.288993,0 -0.577985,-0.240827 -0.577985,-0.577985 v -2.215608 c 0,-0.288992 0.240827,-0.577985 0.577985,-0.577985 0.288992,0 0.577984,0.240827 0.577984,0.577985 v 2.263774 c -0.04817,0.288992 -0.288992,0.529819 -0.577984,0.529819 z M 24.023233,40.60437 c -0.288992,0 -0.577985,-0.240827 -0.577985,-0.577985 v -2.215608 c 0,-0.288992 0.240827,-0.577985 0.577985,-0.577985 0.337158,0 0.577985,0.240827 0.577985,0.577985 v 2.263774 c -0.04817,0.288992 -0.288992,0.529819 -0.577985,0.529819 z m 36.509373,-3.997728 c -0.288993,0 -0.577985,-0.240827 -0.577985,-0.577985 v -2.263774 c 0,-0.288992 0.240827,-0.577984 0.577985,-0.577984 0.288992,0 0.577984,0.240827 0.577984,0.577984 v 2.263774 c -0.04817,0.337158 -0.288992,0.577985 -0.577984,0.577985 z M 24.023233,36.124988 c -0.288992,0 -0.577985,-0.240827 -0.577985,-0.577985 v -2.263774 c 0,-0.288992 0.240827,-0.577984 0.577985,-0.577984 0.337158,0 0.52982,0.288992 0.52982,0.62615 v 2.263774 c 0,0.288992 -0.240827,0.529819 -0.52982,0.529819 z M 60.532606,32.12726 c -0.288993,0 -0.577985,-0.240827 -0.577985,-0.577985 v -1.107804 c -0.288993,0 -0.577985,-0.240827 -0.577985,-0.577985 0,-0.337158 0.240827,-0.577985 0.577985,-0.577985 h 0.577985 c 0.288992,0 0.577984,0.240827 0.577984,0.577985 v 1.685789 c -0.04817,0.337158 -0.288992,0.577985 -0.577984,0.577985 z M 24.023233,31.645606 c -0.288992,0 -0.577985,-0.240827 -0.577985,-0.577985 v -1.155969 c 0,-0.288993 0.240827,-0.577985 0.577985,-0.577985 h 2.263774 c 0.288992,0 0.577985,0.240827 0.577985,0.577985 0,0.337157 -0.240827,0.577984 -0.577985,0.577984 h -1.733954 v 0.577985 c 0,0.337158 -0.240827,0.577985 -0.52982,0.577985 z m 33.667614,-1.204135 h -2.263774 c -0.288992,0 -0.577984,-0.240827 -0.577984,-0.577985 0,-0.337158 0.240827,-0.577985 0.577984,-0.577985 h 2.263774 c 0.288992,0 0.577985,0.240827 0.577985,0.577985 0,0.337158 -0.288993,0.577985 -0.577985,0.577985 z m -4.479382,0 h -2.263774 c -0.288992,0 -0.577985,-0.240827 -0.577985,-0.577985 0,-0.337158 0.240827,-0.577985 0.577985,-0.577985 h 2.263774 c 0.288992,0 0.577985,0.240827 0.577985,0.577985 0,0.337158 -0.288993,0.577985 -0.577985,0.577985 z m -4.527548,0 h -2.263773 c -0.288993,0 -0.577985,-0.240827 -0.577985,-0.577985 0,-0.337158 0.240827,-0.577985 0.577985,-0.577985 h 2.263773 c 0.288993,0 0.577985,0.240827 0.577985,0.577985 0,0.337158 -0.240827,0.577985 -0.577985,0.577985 z m -4.479382,0 h -2.263773 c -0.288993,0 -0.577985,-0.240827 -0.577985,-0.577985 0,-0.337158 0.240827,-0.577985 0.577985,-0.577985 h 2.263773 c 0.288993,0 0.577985,0.240827 0.577985,0.577985 0,0.337158 -0.240827,0.577985 -0.577985,0.577985 z m -4.479382,0 h -2.263774 c -0.288992,0 -0.577984,-0.240827 -0.577984,-0.577985 0,-0.337158 0.240827,-0.577985 0.577984,-0.577985 h 2.263774 c 0.288993,0 0.577985,0.240827 0.577985,0.577985 0,0.337158 -0.288992,0.577985 -0.577985,0.577985 z m -4.479382,0 h -2.263774 c -0.288992,0 -0.577984,-0.240827 -0.577984,-0.577985 0,-0.337158 0.240827,-0.577985 0.577984,-0.577985 h 2.263774 c 0.288993,0 0.577985,0.240827 0.577985,0.577985 0,0.337158 -0.288992,0.577985 -0.577985,0.577985 z m -4.527547,0 H 28.45445 c -0.288993,0 -0.577985,-0.240827 -0.577985,-0.577985 0,-0.337158 0.240827,-0.577985 0.577985,-0.577985 h 2.263774 c 0.288992,0 0.577984,0.240827 0.577984,0.577985 0,0.337158 -0.240827,0.577985 -0.577984,0.577985 z"
     id="path8"
     style="fill:#0000ff;stroke-width:0.481654" /><path
     class="st0"
     d="M 65.493642,55.391148 H 19.784678 V 29.863486 c 0,-2.552766 2.071112,-4.575713 4.575713,-4.575713 h 36.509372 c 2.552767,0 4.575713,2.071112 4.575713,4.575713 V 55.391148 Z M 21.374136,53.801689 H 63.904184 V 29.911652 c 0,-1.637624 -1.348632,-3.034421 -3.034421,-3.034421 H 24.360391 c -1.637624,0 -3.03442,1.348632 -3.03442,3.034421 v 23.890037 z"
     id="path6"
     style="stroke:#c8b7b7;stroke-width:0.481654" /><path
     class="st0"
     d="M 50.85136,58.425568 H 35.390267 c -1.493127,0 -2.697262,-1.204135 -2.697262,-2.697263 v -1.87845 h 1.589458 v 1.87845 c 0,0.626151 0.481654,1.107805 1.107804,1.107805 h 15.509259 c 0.62615,0 1.107804,-0.481654 1.107804,-1.107805 v -1.87845 h 1.589458 v 1.87845 c -0.04816,1.493128 -1.2523,2.697263 -2.745428,2.697263 z"
     id="path10"
     style="stroke:#c8b7b7;stroke-width:0.481654" /><path
     class="st0"
     d="M 66.986769,61.508153 H 17.520904 c -2.552766,0 -4.575713,-2.071112 -4.575713,-4.575713 v -3.082585 h 58.617291 v 3.082585 c 0,2.504601 -2.071112,4.575713 -4.575713,4.575713 z M 14.53465,55.391148 v 1.493127 c 0,1.637624 1.348631,3.03442 3.03442,3.03442 h 49.417699 c 1.637624,0 3.03442,-1.348631 3.03442,-3.03442 v -1.493127 z"
     id="path4"
     style="stroke:#c8b7b7;stroke-width:0.481654" /><path
     class="st0"
     d="m 75.030391,34.583695 c -3.082586,0 -5.34636,-0.04816 -5.394525,-0.04816 -0.433489,0 -0.770646,-0.385323 -0.770646,-0.818812 0,-0.433489 0.385323,-0.770646 0.818811,-0.770646 0.04817,0 7.128479,0.192661 13.293651,-0.09633 1.589458,-0.481654 2.841758,-1.204135 3.708735,-2.167443 1.926616,-2.119278 2.456436,-4.864705 1.444962,-7.417472 -1.155969,-2.938089 -3.949562,-4.816539 -7.561967,-5.105532 -0.337158,-0.04817 -0.577985,-0.240827 -0.674316,-0.577985 -0.09633,-0.288992 0,-0.62615 0.240827,-0.866977 1.541293,-1.2523 1.878451,-2.938089 1.926616,-4.19039 C 82.110704,9.8748455 80.713908,6.9367562 78.450134,4.9619748 76.330856,3.1316897 73.537263,2.2647125 70.888166,2.6018703 67.805581,2.9871935 64.963822,4.865644 62.748214,7.996395 c -0.144496,0.1926616 -0.337158,0.2889924 -0.529819,0.3371578 -0.192662,0.048165 -0.433489,0 -0.626151,-0.1444962 C 58.07617,5.4917942 54.367435,5.106471 51.429345,7.1775832 c -2.697262,1.8784506 -3.997728,5.3945248 -3.03442,8.3326138 0.09633,0.240827 0.04816,0.52982 -0.144496,0.722481 -0.144496,0.192662 -0.385323,0.337158 -0.674316,0.288993 -6.598659,-0.337158 -7.754629,6.117005 -7.995456,8.139952 -0.04817,0.433489 -0.433489,0.770646 -0.866977,0.722481 -0.433489,-0.04817 -0.770647,-0.433489 -0.722481,-0.866977 0.481654,-4.527548 2.986255,-9.295922 8.573441,-9.536749 -0.577985,-3.323413 0.963308,-7.0321484 3.901397,-9.1032606 3.323413,-2.3119391 7.513802,-2.1192775 11.367034,0.5779848 3.034421,-3.9495627 6.405998,-5.1055323 8.766103,-5.3945247 3.130751,-0.38532317 6.357833,0.6261502 8.814268,2.7454278 2.552766,2.2156083 4.19039,5.683517 4.142224,8.7661027 -0.04816,1.637623 -0.481654,3.03442 -1.348631,4.19039 3.419743,0.722481 6.117006,2.889924 7.321141,5.876178 1.2523,3.130751 0.577985,6.502329 -1.78212,9.055095 -1.059639,1.15597 -2.600932,2.022947 -4.479382,2.600932 -0.04816,0 -0.144496,0.04817 -0.192662,0.04817 -2.697262,0.192662 -5.635351,0.240827 -8.043621,0.240827 z"
     id="path16"
     style="fill:#00ffff;stroke-width:0.481654" /><path
     class="st0"
     d="m 69.395039,27.262555 c -0.915143,0 -1.830285,-0.144497 -2.745428,-0.385324 -0.337158,-0.09633 -0.577985,-0.433488 -0.577985,-0.770646 0,-0.577985 -0.288992,-1.15597 -0.818811,-1.444962 -0.52982,-0.288992 -1.107804,-0.288992 -1.637624,0 -0.288992,0.192662 -0.674315,0.144496 -0.963308,-0.144496 -0.674315,-0.62615 -1.2523,-1.396797 -1.685789,-2.215609 -0.192661,-0.337157 -0.09633,-0.722481 0.144496,-0.963307 0.433489,-0.433489 0.626151,-1.011474 0.433489,-1.589459 -0.144496,-0.577984 -0.62615,-1.011473 -1.204135,-1.155969 -0.337158,-0.09633 -0.577985,-0.385323 -0.577985,-0.770647 0,-0.915142 0.09633,-1.830285 0.337158,-2.745427 0.09633,-0.337158 0.433489,-0.577985 0.818812,-0.577985 0.62615,0.04817 1.204135,-0.288993 1.493127,-0.818812 0.337158,-0.529819 0.288993,-1.204135 -0.04817,-1.733954 -0.192662,-0.288993 -0.192662,-0.722481 0.09633,-1.011474 0.62615,-0.674315 1.348631,-1.2041347 2.167443,-1.6857886 0.337157,-0.1926616 0.770646,-0.096331 1.011473,0.1926615 0.433488,0.481654 1.059639,0.7224811 1.685789,0.5298194 0.62615,-0.1444962 1.107804,-0.6743155 1.204135,-1.3004657 0.04816,-0.3853232 0.385323,-0.6743156 0.770646,-0.6743156 0.915143,0 1.830285,0.096331 2.697263,0.3371578 0.385323,0.096331 0.62615,0.481654 0.577984,0.8669772 -0.09633,0.6261501 0.240827,1.300466 0.818812,1.589458 0.577985,0.337158 1.252301,0.288993 1.78212,-0.09633 0.337158,-0.240827 0.770646,-0.192661 1.011473,0.09633 0.62615,0.62615 1.204135,1.396797 1.637624,2.167443 0.192661,0.337158 0.09633,0.770646 -0.192662,1.011473 -0.529819,0.385324 -0.722481,1.059639 -0.577985,1.685789 0,0 0,0 0,0 0.144497,0.626151 0.674316,1.059639 1.300466,1.204135 0.385323,0.04817 0.674316,0.385324 0.62615,0.770647 0,0.915142 -0.144496,1.830285 -0.433488,2.697262 -0.09633,0.337158 -0.433489,0.577985 -0.818812,0.577985 -0.62615,-0.04817 -1.2523,0.240827 -1.541293,0.818812 -0.288992,0.529819 -0.288992,1.155969 0.04817,1.685789 0.192661,0.337157 0.144496,0.722481 -0.09633,0.963308 -0.674316,0.62615 -1.396797,1.204135 -2.215608,1.637623 -0.337158,0.144496 -0.722481,0.09633 -0.963308,-0.144496 -0.433489,-0.433489 -1.059639,-0.62615 -1.637624,-0.481654 -0.577985,0.144496 -1.011473,0.577985 -1.15597,1.15597 -0.09633,0.481654 -0.385323,0.722481 -0.770646,0.722481 0,0 0,0 10e-7,0 z m -1.733954,-1.78212 c 0.385323,0.09633 0.818811,0.144496 1.2523,0.192661 0.433489,-0.818811 1.15597,-1.444962 2.071112,-1.685789 0.915143,-0.240827 1.926616,-0.04817 2.697263,0.52982 0.337157,-0.192662 0.674315,-0.433489 0.963308,-0.722481 -0.337158,-0.915143 -0.240827,-1.878451 0.240827,-2.745428 0.529819,-0.866977 1.396796,-1.444962 2.360104,-1.541293 0.09633,-0.385323 0.144496,-0.770646 0.192662,-1.107804 -0.915143,-0.385323 -1.589459,-1.155969 -1.878451,-2.167443 -0.240827,-1.011473 0,-2.071112 0.62615,-2.841758 -0.192661,-0.288993 -0.433488,-0.577985 -0.674315,-0.866978 -0.915143,0.385324 -2.022947,0.337158 -2.889924,-0.192661 -0.915143,-0.52982 -1.493128,-1.444962 -1.589458,-2.4564355 -0.337158,-0.096331 -0.722481,-0.1444962 -1.107805,-0.1444962 -0.385323,0.9151427 -1.204135,1.6376237 -2.167443,1.9266157 -0.963308,0.240827 -2.022946,0 -2.793593,-0.577984 -0.337157,0.192661 -0.62615,0.433488 -0.915142,0.72248 0.385323,0.915143 0.288992,1.926616 -0.192662,2.841759 -0.481654,0.818812 -1.348631,1.396797 -2.263774,1.541293 -0.09633,0.385323 -0.144496,0.770646 -0.144496,1.204135 0.866977,0.385323 1.493128,1.155969 1.733955,2.119277 0.240827,0.915143 0.04817,1.878451 -0.481654,2.649097 0.240827,0.337158 0.481654,0.674316 0.770646,1.011474 0.866977,-0.288993 1.830285,-0.192662 2.649097,0.288992 0.818812,0.337158 1.348631,1.107804 1.541293,2.022947 z m 1.782119,-4.527548 c -0.529819,0 -1.107804,-0.144496 -1.589458,-0.433488 -0.722481,-0.433489 -1.2523,-1.107804 -1.444962,-1.926616 -0.192661,-0.818812 -0.09633,-1.685789 0.337158,-2.40827 0.866977,-1.493128 2.841759,-1.974782 4.334886,-1.107804 0.722481,0.433488 1.2523,1.107804 1.444962,1.926616 0.192662,0.818811 0.09633,1.685789 -0.337158,2.40827 -0.577985,0.963308 -1.637623,1.541292 -2.745428,1.541292 z m 0,-4.720209 c -0.529819,0 -1.059638,0.288993 -1.348631,0.770647 -0.192661,0.337157 -0.288992,0.770646 -0.144496,1.204135 0.09633,0.385323 0.385323,0.770646 0.722481,0.963308 0.770646,0.433488 1.733954,0.192661 2.167443,-0.577985 0.192662,-0.337158 0.288992,-0.770647 0.144496,-1.204135 -0.09633,-0.385323 -0.385323,-0.770647 -0.722481,-0.963308 -0.288992,-0.144496 -0.529819,-0.192662 -0.818812,-0.192662 z"
     id="path18"
     style="fill:#008000;stroke-width:0.481654" /><text
     xml:space="preserve"
     style="font-size:30.8343px;line-height:1.25;font-family:sans-serif;letter-spacing:0px;word-spacing:0px;fill:#ff0000;stroke-width:0.770855"
     x="116.95148"
     y="30.937716"
     id="text860"
     transform="scale(0.95836572,1.043443)"><tspan
       sodipodi:role="line"
       id="tspan858"
       x="116.95148"
       y="30.937716"
       style="fill:#ff0000;stroke-width:0.770855">Dev</tspan></text><text
     xml:space="preserve"
     style="font-size:32.2263px;line-height:1.25;font-family:sans-serif;letter-spacing:0px;word-spacing:0px;stroke-width:0.805657"
     x="88.81044"
     y="56.043766"
     id="text864"
     transform="scale(0.98247132,1.0178414)"><tspan
       sodipodi:role="line"
       id="tspan862"
       x="88.81044"
       y="56.043766"
       style="stroke-width:0.805657">Center</tspan></text><path
     style="fill:none;stroke:#800080;stroke-width:0.5;stroke-linecap:butt;stroke-linejoin:miter;stroke-miterlimit:4;stroke-dasharray:2, 0.5;stroke-dashoffset:0;stroke-opacity:1;marker-end:url(#DotL)"
     d="M 65.839378,50.975455 H 80.125206 V 40.365027"
     id="path905" /><path
     style="fill:none;stroke:#501616;stroke-width:0.5;stroke-linecap:butt;stroke-linejoin:miter;stroke-miterlimit:4;stroke-dasharray:2, 0.5;stroke-dashoffset:0;stroke-opacity:1;marker-start:url(#marker1373);marker-end:url(#EmptyDiamondLstart)"
     d="M 34.221126,15.810223 H 12.953671 v 23.589333"
     id="path905-7" /><path
     style="fill:none;stroke:#008080;stroke-width:0.5;stroke-linecap:butt;stroke-linejoin:miter;stroke-miterlimit:1;stroke-dasharray:2, 0.5;stroke-dashoffset:0;stroke-opacity:1;marker-start:url(#marker1373-5);marker-end:url(#EmptyDiamondS)"
     d="M 187.55061,27.262554 V 5.8593292 H 83.551926"
     id="path905-7-2" /></g></svg>
